<?xml version="1.0" encoding="UTF-8"?>
<svg xmlns="http://www.w3.org/2000/svg" viewBox="0 0 512 512" width="512" height="512"><defs><clipPath id="lens-clip-_R_0_"><circle cx="256" cy="240" r="168"></circle></clipPath><linearGradient id="ring-gradient-_R_0_" x1="0%" y1="100%" x2="100%" y2="0%"><stop offset="0%" stop-color="#00d26a"></stop><stop offset="100%" stop-color="#3a86ff"></stop></linearGradient></defs><rect width="512" height="512" rx="24" fill="#111827"></rect><g id="logo"><g id="chart"><g transform="translate(130 252)"><g id="bars"><rect x="0" y="135" width="34" height="90" rx="8" fill="#5b6cff"></rect><rect x="66" y="155" width="34" height="70" rx="8" fill="#3f8cff"></rect><rect x="132" y="155" width="34" height="70" rx="8" fill="#00b8d9"></rect><rect x="198" y="135" width="34" height="90" rx="8" fill="#00c853"></rect><rect x="264" y="135" width="34" height="90" rx="8" fill="#fbfb31"></rect></g></g><g transform="translate(130 22)"><g id="trend" fill="#fbfb31" stroke="#fbfb31"><path d="M0 280 L66 200 L134 240 L200 160 L280 80" fill="none" stroke-width="14" stroke-linecap="butt" stroke-linejoin="round"></path><path d="M296.97056274847716 63.029437251522864 L286.3639610306789 86.36396103067892 L273.6360389693211 73.63603896932108 Z" stroke-linecap="round" stroke-width="5"></path><g id="trend-nodes"><circle cx="0" cy="280" r="9"></circle><circle cx="66" cy="200" r="9"></circle><circle cx="134" cy="240" r="9"></circle><circle cx="200" cy="160" r="9"></circle></g></g></g><g clip-path="url(#lens-clip-_R_0_)"><circle cx="256" cy="240" r="168" fill="#111827"></circle><g transform="translate(256 240) scale(1.29) translate(-256 -240)"><g transform="translate(130 252)"><g id="bars-lens"><rect x="0" y="135" width="34" height="90" rx="8" fill="#5b6cff"></rect><rect x="66" y="155" width="34" height="70" rx="8" fill="#3f8cff"></rect><rect x="132" y="155" width="34" height="70" rx="8" fill="#00b8d9"></rect><rect x="198" y="135" width="34" height="90" rx="8" fill="#00c853"></rect><rect x="264" y="135" width="34" height="90" rx="8" fill="#fbfb31"></rect></g></g><g transform="translate(130 22)"><g id="trend-lens" fill="#fbfb31" stroke="#fbfb31"><path d="M0 280 L66 200 L134 240 L200 160 L280 80" fill="none" stroke-width="14" stroke-linecap="butt" stroke-linejoin="round"></path><path d="M296.97056274847716 63.029437251522864 L286.3639610306789 86.36396103067892 L273.6360389693211 73.63603896932108 Z" stroke-linecap="round" stroke-width="5"></path><g id="trend-lens-nodes"><circle cx="0" cy="280" r="9"></circle><circle cx="66" cy="200" r="9"></circle><circle cx="134" cy="240" r="9"></circle><circle cx="200" cy="160" r="9"></circle></g></g></g></g></g></g><g id="magnifying-glass" stroke-linecap="round"><circle cx="256" cy="240" r="180" fill="none" stroke="#000000" stroke-width="34" transform="rotate(-15 256 240)"></circle><path d="M383.27922061357856 367.27922061357856 L453.9898987322333 437.9898987322333" stroke="#000000" stroke-width="16"></path><path d="M411.56349186104046 395.56349186104046 L482.2741699796952 466.2741699796952" stroke="#000000" stroke-width="60"></path><path d="M383.27922061357856 367.27922061357856 L453.9898987322333 437.9898987322333" stroke="url(#ring-gradient-_R_0_)" stroke-width="10"></path><path d="M411.56349186104046 395.56349186104046 L482.2741699796952 466.2741699796952" stroke="url(#ring-gradient-_R_0_)" stroke-width="40"></path><circle cx="256" cy="240" r="180" fill="none" stroke="url(#ring-gradient-_R_0_)" stroke-width="20" transform="rotate(-15 256 240)"></circle></g></g></svg>
